<svg xmlns="http://www.w3.org/2000/svg" width="300" height="300">
    <rect x="150" y="90" width="120" height="60" fill="#3399ff"></rect>
    <polygon points="150,150 30,150 150,30" fill="#3399ff"></polygon>
    <path d="M 150 150 L 30 150 C 30 220 80 270 150 270 L Z" fill="#3399ff"></path>
    <line x1="0" y1="150" x2="300" y2="150" stroke="#000000" stroke-width="2"></line>
    <line x1="150" y1="0" x2="150" y2="300" stroke="#000000" stroke-width="2"></line>
    <polygon points="300,150 295,155 295, 145" fill="#000720" stroke="#000720"></polygon>
    <polygon points="150,0 145,5 155,5" fill="#000720" stroke="#000720"></polygon>
    <line x1="270" y1="146" x2="270" y2="154" stroke="#000000" stroke-width="2"></line>
    <text x="265" y="140">R</text>
    <line x1="210" y1="146" x2="210" y2="154" stroke="#000000" stroke-width="2"></line>
    <text x="200" y="140">R/2</text>
    <line x1="90" y1="146" x2="90" y2="154" stroke="#000000" stroke-width="2"></line>
    <text x="75" y="140">-R/2</text>
    <line x1="30" y1="146" x2="30" y2="154" stroke="#000000" stroke-width="2"></line>
    <text x="20" y="140">-R</text>
    <line x1="146" y1="30" x2="154" y2="30" stroke="#000000" stroke-width="2"></line>
    <text x="156" y="35">R</text>
    <line x1="146" y1="90" x2="154" y2="90" stroke="#000000" stroke-width="2"></line>
    <text x="156" y="95">R/2</text>
    <line x1="146" y1="210" x2="154" y2="210" stroke="#000000" stroke-width="2"></line>
    <text x="156" y="215">-R/2</text>
    <line x1="146" y1="270" x2="154" y2="270" stroke="#000000" stroke-width="2"></line>
    <text x="156" y="275">-R</text>
    Sorry, your browser does not support inline SVG.
</svg>